<svg width="2000" height="1000" viewBox="0 0 2000 1000" fill="none" xmlns="http://www.w3.org/2000/svg">
<rect width="2000" height="1000" fill="url(#paint0_linear_17_123)"/>
<line x1="141.278" y1="600.722" x2="440.601" y2="600.722" stroke="white" stroke-width="23.5561" stroke-linecap="round"/>
<mask id="path-2-inside-1_17_123" fill="white">
<rect x="233.055" y="387.5" width="115.749" height="225" rx="8.12278"/>
</mask>
<rect x="233.055" y="387.5" width="115.749" height="225" rx="8.12278" stroke="white" stroke-width="47.1121" mask="url(#path-2-inside-1_17_123)"/>
<mask id="path-3-inside-2_17_123" fill="white">
<rect x="165.242" y="483.359" width="91.3809" height="129.152" rx="8.12278"/>
</mask>
<rect x="165.242" y="483.359" width="91.3809" height="129.152" rx="8.12278" stroke="white" stroke-width="47.1121" mask="url(#path-3-inside-2_17_123)"/>
<mask id="path-4-inside-3_17_123" fill="white">
<rect x="325.242" y="483.359" width="90.5686" height="129.152" rx="8.12278"/>
</mask>
<rect x="325.242" y="483.359" width="90.5686" height="129.152" rx="8.12278" stroke="white" stroke-width="47.1121" mask="url(#path-4-inside-3_17_123)"/>
<line x1="289.108" y1="438.28" x2="289.108" y2="458.586" stroke="white" stroke-width="12.1842" stroke-linecap="round"/>
<line x1="304.58" y1="459.373" x2="289.099" y2="459.373" stroke="white" stroke-width="12.1842" stroke-linecap="round"/>
<path d="M550.85 462H520.55V441.3H604.55V462H574.25V547.5H550.85V462ZM729.884 492.6H710.084V516.9C710.084 518.9 710.184 520.75 710.384 522.45C710.584 524.05 711.034 525.45 711.734 526.65C712.434 527.85 713.484 528.8 714.884 529.5C716.384 530.1 718.334 530.4 720.734 530.4C721.934 530.4 723.484 530.3 725.384 530.1C727.384 529.8 728.884 529.2 729.884 528.3V547.05C727.384 547.95 724.784 548.55 722.084 548.85C719.384 549.15 716.734 549.3 714.134 549.3C710.334 549.3 706.834 548.9 703.634 548.1C700.434 547.3 697.634 546.05 695.234 544.35C692.834 542.55 690.934 540.25 689.534 537.45C688.234 534.65 687.584 531.25 687.584 527.25V492.6H673.184V474.6H687.584V453H710.084V474.6H729.884V492.6ZM810.318 534.9C806.718 539.5 802.168 543.05 796.668 545.55C791.168 548.05 785.468 549.3 779.568 549.3C773.968 549.3 768.668 548.4 763.668 546.6C758.768 544.8 754.468 542.25 750.768 538.95C747.168 535.55 744.318 531.5 742.218 526.8C740.118 522.1 739.068 516.85 739.068 511.05C739.068 505.25 740.118 500 742.218 495.3C744.318 490.6 747.168 486.6 750.768 483.3C754.468 479.9 758.768 477.3 763.668 475.5C768.668 473.7 773.968 472.8 779.568 472.8C784.768 472.8 789.468 473.7 793.668 475.5C797.968 477.3 801.568 479.9 804.468 483.3C807.468 486.6 809.768 490.6 811.368 495.3C812.968 500 813.768 505.25 813.768 511.05V518.1H761.568C762.468 522.4 764.418 525.85 767.418 528.45C770.418 530.95 774.118 532.2 778.518 532.2C782.218 532.2 785.318 531.4 787.818 529.8C790.418 528.1 792.668 525.95 794.568 523.35L810.318 534.9ZM791.268 502.8C791.368 499 790.118 495.75 787.518 493.05C784.918 490.35 781.568 489 777.468 489C774.968 489 772.768 489.4 770.868 490.2C768.968 491 767.318 492.05 765.918 493.35C764.618 494.55 763.568 496 762.768 497.7C762.068 499.3 761.668 501 761.568 502.8H791.268ZM876.802 498.15C875.702 496.55 874.152 495.25 872.152 494.25C870.152 493.15 868.002 492.6 865.702 492.6C860.001 492.6 855.551 494.3 852.351 497.7C849.251 501.1 847.701 505.55 847.701 511.05C847.701 516.55 849.251 521 852.351 524.4C855.551 527.8 860.001 529.5 865.702 529.5C868.202 529.5 870.352 528.95 872.152 527.85C873.952 526.75 875.502 525.45 876.802 523.95L891.652 539.55C888.152 543.15 884.002 545.7 879.202 547.2C874.502 548.6 870.002 549.3 865.702 549.3C860.101 549.3 854.801 548.4 849.801 546.6C844.901 544.8 840.601 542.25 836.901 538.95C833.301 535.55 830.451 531.5 828.351 526.8C826.251 522.1 825.201 516.85 825.201 511.05C825.201 505.25 826.251 500 828.351 495.3C830.451 490.6 833.301 486.6 836.901 483.3C840.601 479.9 844.901 477.3 849.801 475.5C854.801 473.7 860.101 472.8 865.702 472.8C870.002 472.8 874.502 473.55 879.202 475.05C884.002 476.45 888.152 478.95 891.652 482.55L876.802 498.15ZM922.315 434.099V484.5H922.615C923.115 483.1 923.965 481.7 925.165 480.3C926.365 478.9 927.815 477.65 929.515 476.55C931.215 475.45 933.215 474.55 935.515 473.85C937.815 473.15 940.315 472.8 943.015 472.8C948.715 472.8 953.315 473.7 956.815 475.5C960.315 477.2 963.015 479.6 964.915 482.7C966.915 485.8 968.265 489.45 968.965 493.65C969.665 497.85 970.015 502.4 970.015 507.3V547.5H947.515V511.8C947.515 509.7 947.415 507.55 947.215 505.35C947.115 503.05 946.665 500.95 945.865 499.05C945.165 497.15 944.015 495.6 942.415 494.4C940.915 493.2 938.715 492.6 935.815 492.6C932.915 492.6 930.565 493.15 928.765 494.25C926.965 495.25 925.565 496.65 924.565 498.45C923.665 500.15 923.065 502.1 922.765 504.3C922.465 506.5 922.315 508.8 922.315 511.2V547.5H899.815V434.099H922.315ZM1068.13 441.3H1087.48L1133.68 547.5H1107.28L1098.13 525H1056.88L1048.03 547.5H1022.23L1068.13 441.3ZM1077.13 472.2L1064.23 505.2H1090.18L1077.13 472.2ZM1143.62 474.6H1164.32V484.2H1164.62C1165.52 482.9 1166.67 481.6 1168.07 480.3C1169.57 478.9 1171.27 477.65 1173.17 476.55C1175.17 475.45 1177.32 474.55 1179.62 473.85C1181.92 473.15 1184.37 472.8 1186.97 472.8C1192.37 472.8 1197.27 473.75 1201.67 475.65C1206.07 477.45 1209.82 480.05 1212.92 483.45C1216.12 486.75 1218.57 490.7 1220.27 495.3C1221.97 499.9 1222.82 504.95 1222.82 510.45C1222.82 515.55 1222.02 520.45 1220.42 525.15C1218.92 529.75 1216.72 533.85 1213.82 537.45C1211.02 541.05 1207.57 543.95 1203.47 546.15C1199.37 548.25 1194.72 549.3 1189.52 549.3C1184.82 549.3 1180.42 548.6 1176.32 547.2C1172.32 545.7 1169.02 543.2 1166.42 539.7H1166.12V581.7H1143.62V474.6ZM1164.32 511.05C1164.32 516.55 1165.87 521 1168.97 524.4C1172.17 527.8 1176.62 529.5 1182.32 529.5C1188.02 529.5 1192.42 527.8 1195.52 524.4C1198.72 521 1200.32 516.55 1200.32 511.05C1200.32 505.55 1198.72 501.1 1195.52 497.7C1192.42 494.3 1188.02 492.6 1182.32 492.6C1176.62 492.6 1172.17 494.3 1168.97 497.7C1165.87 501.1 1164.32 505.55 1164.32 511.05ZM1238.1 474.6H1258.8V484.2H1259.1C1260 482.9 1261.15 481.6 1262.55 480.3C1264.05 478.9 1265.75 477.65 1267.65 476.55C1269.65 475.45 1271.8 474.55 1274.1 473.85C1276.4 473.15 1278.85 472.8 1281.45 472.8C1286.85 472.8 1291.75 473.75 1296.15 475.65C1300.55 477.45 1304.3 480.05 1307.4 483.45C1310.6 486.75 1313.05 490.7 1314.75 495.3C1316.45 499.9 1317.3 504.95 1317.3 510.45C1317.3 515.55 1316.5 520.45 1314.9 525.15C1313.4 529.75 1311.2 533.85 1308.3 537.45C1305.5 541.05 1302.05 543.95 1297.95 546.15C1293.85 548.25 1289.2 549.3 1284 549.3C1279.3 549.3 1274.9 548.6 1270.8 547.2C1266.8 545.7 1263.5 543.2 1260.9 539.7H1260.6V581.7H1238.1V474.6ZM1258.8 511.05C1258.8 516.55 1260.35 521 1263.45 524.4C1266.65 527.8 1271.1 529.5 1276.8 529.5C1282.5 529.5 1286.9 527.8 1290 524.4C1293.2 521 1294.8 516.55 1294.8 511.05C1294.8 505.55 1293.2 501.1 1290 497.7C1286.9 494.3 1282.5 492.6 1276.8 492.6C1271.1 492.6 1266.65 494.3 1263.45 497.7C1260.35 501.1 1258.8 505.55 1258.8 511.05ZM1377.72 441.3H1417.17C1422.67 441.3 1427.87 441.8 1432.77 442.8C1437.67 443.8 1441.92 445.55 1445.52 448.05C1449.22 450.45 1452.12 453.75 1454.22 457.95C1456.42 462.05 1457.52 467.25 1457.52 473.55C1457.52 479.75 1456.52 484.95 1454.52 489.15C1452.52 493.35 1449.77 496.7 1446.27 499.2C1442.77 501.7 1438.62 503.5 1433.82 504.6C1429.02 505.6 1423.82 506.1 1418.22 506.1H1401.12V547.5H1377.72V441.3ZM1401.12 486.3H1416.72C1418.82 486.3 1420.82 486.1 1422.72 485.7C1424.72 485.3 1426.47 484.65 1427.97 483.75C1429.57 482.75 1430.82 481.45 1431.72 479.85C1432.72 478.15 1433.22 476.05 1433.22 473.55C1433.22 470.85 1432.57 468.7 1431.27 467.1C1430.07 465.4 1428.47 464.1 1426.47 463.2C1424.57 462.3 1422.42 461.75 1420.02 461.55C1417.62 461.25 1415.32 461.1 1413.12 461.1H1401.12V486.3ZM1469.35 474.6H1491.85V486.3H1492.15C1494.55 481.8 1497.4 478.45 1500.7 476.25C1504 473.95 1508.15 472.8 1513.15 472.8C1514.45 472.8 1515.75 472.85 1517.05 472.95C1518.35 473.05 1519.55 473.25 1520.65 473.55V494.1C1519.05 493.6 1517.45 493.25 1515.85 493.05C1514.35 492.75 1512.75 492.6 1511.05 492.6C1506.75 492.6 1503.35 493.2 1500.85 494.4C1498.35 495.6 1496.4 497.3 1495 499.5C1493.7 501.6 1492.85 504.15 1492.45 507.15C1492.05 510.15 1491.85 513.45 1491.85 517.05V547.5H1469.35V474.6ZM1525.1 511.05C1525.1 505.25 1526.15 500 1528.25 495.3C1530.35 490.6 1533.2 486.6 1536.8 483.3C1540.5 479.9 1544.8 477.3 1549.7 475.5C1554.7 473.7 1560 472.8 1565.6 472.8C1571.2 472.8 1576.45 473.7 1581.35 475.5C1586.35 477.3 1590.65 479.9 1594.25 483.3C1597.95 486.6 1600.85 490.6 1602.95 495.3C1605.05 500 1606.1 505.25 1606.1 511.05C1606.1 516.85 1605.05 522.1 1602.95 526.8C1600.85 531.5 1597.95 535.55 1594.25 538.95C1590.65 542.25 1586.35 544.8 1581.35 546.6C1576.45 548.4 1571.2 549.3 1565.6 549.3C1560 549.3 1554.7 548.4 1549.7 546.6C1544.8 544.8 1540.5 542.25 1536.8 538.95C1533.2 535.55 1530.35 531.5 1528.25 526.8C1526.15 522.1 1525.1 516.85 1525.1 511.05ZM1547.6 511.05C1547.6 516.55 1549.15 521 1552.25 524.4C1555.45 527.8 1559.9 529.5 1565.6 529.5C1571.3 529.5 1575.7 527.8 1578.8 524.4C1582 521 1583.6 516.55 1583.6 511.05C1583.6 505.55 1582 501.1 1578.8 497.7C1575.7 494.3 1571.3 492.6 1565.6 492.6C1559.9 492.6 1555.45 494.3 1552.25 497.7C1549.15 501.1 1547.6 505.55 1547.6 511.05ZM1642.15 552.9C1642.15 557.6 1641.7 561.8 1640.8 565.5C1639.9 569.3 1638.4 572.5 1636.3 575.1C1634.2 577.8 1631.4 579.85 1627.9 581.25C1624.5 582.75 1620.25 583.5 1615.15 583.5C1613.45 583.5 1611.7 583.4 1609.9 583.2C1608.1 583.1 1606.35 582.8 1604.65 582.3L1605.85 562.35C1607.65 563.25 1609.6 563.7 1611.7 563.7C1613.6 563.7 1615.1 563.2 1616.2 562.2C1617.3 561.2 1618.1 559.95 1618.6 558.45C1619.1 556.95 1619.4 555.35 1619.5 553.65C1619.6 551.95 1619.65 550.4 1619.65 549V474.6H1642.15V552.9ZM1617.85 451.65C1617.85 448.05 1619.1 445 1621.6 442.5C1624.2 439.9 1627.3 438.6 1630.9 438.6C1634.5 438.6 1637.55 439.9 1640.05 442.5C1642.65 445 1643.95 448.05 1643.95 451.65C1643.95 455.25 1642.65 458.35 1640.05 460.95C1637.55 463.45 1634.5 464.7 1630.9 464.7C1627.3 464.7 1624.2 463.45 1621.6 460.95C1619.1 458.35 1617.85 455.25 1617.85 451.65ZM1727.31 534.9C1723.71 539.5 1719.16 543.05 1713.66 545.55C1708.16 548.05 1702.46 549.3 1696.56 549.3C1690.96 549.3 1685.66 548.4 1680.66 546.6C1675.76 544.8 1671.46 542.25 1667.76 538.95C1664.16 535.55 1661.31 531.5 1659.21 526.8C1657.11 522.1 1656.06 516.85 1656.06 511.05C1656.06 505.25 1657.11 500 1659.21 495.3C1661.31 490.6 1664.16 486.6 1667.76 483.3C1671.46 479.9 1675.76 477.3 1680.66 475.5C1685.66 473.7 1690.96 472.8 1696.56 472.8C1701.76 472.8 1706.46 473.7 1710.66 475.5C1714.96 477.3 1718.56 479.9 1721.46 483.3C1724.46 486.6 1726.76 490.6 1728.36 495.3C1729.96 500 1730.76 505.25 1730.76 511.05V518.1H1678.56C1679.46 522.4 1681.41 525.85 1684.41 528.45C1687.41 530.95 1691.11 532.2 1695.51 532.2C1699.21 532.2 1702.31 531.4 1704.81 529.8C1707.41 528.1 1709.66 525.95 1711.56 523.35L1727.31 534.9ZM1708.26 502.8C1708.36 499 1707.11 495.75 1704.51 493.05C1701.91 490.35 1698.56 489 1694.46 489C1691.96 489 1689.76 489.4 1687.86 490.2C1685.96 491 1684.31 492.05 1682.91 493.35C1681.61 494.55 1680.56 496 1679.76 497.7C1679.06 499.3 1678.66 501 1678.56 502.8H1708.26ZM1793.8 498.15C1792.7 496.55 1791.15 495.25 1789.15 494.25C1787.15 493.15 1785 492.6 1782.7 492.6C1777 492.6 1772.55 494.3 1769.35 497.7C1766.25 501.1 1764.7 505.55 1764.7 511.05C1764.7 516.55 1766.25 521 1769.35 524.4C1772.55 527.8 1777 529.5 1782.7 529.5C1785.2 529.5 1787.35 528.95 1789.15 527.85C1790.95 526.75 1792.5 525.45 1793.8 523.95L1808.65 539.55C1805.15 543.15 1801 545.7 1796.2 547.2C1791.5 548.6 1787 549.3 1782.7 549.3C1777.1 549.3 1771.8 548.4 1766.8 546.6C1761.9 544.8 1757.6 542.25 1753.9 538.95C1750.3 535.55 1747.45 531.5 1745.35 526.8C1743.25 522.1 1742.2 516.85 1742.2 511.05C1742.2 505.25 1743.25 500 1745.35 495.3C1747.45 490.6 1750.3 486.6 1753.9 483.3C1757.6 479.9 1761.9 477.3 1766.8 475.5C1771.8 473.7 1777.1 472.8 1782.7 472.8C1787 472.8 1791.5 473.55 1796.2 475.05C1801 476.45 1805.15 478.95 1808.65 482.55L1793.8 498.15ZM1866.46 492.6H1846.66V516.9C1846.66 518.9 1846.76 520.75 1846.96 522.45C1847.16 524.05 1847.61 525.45 1848.31 526.65C1849.01 527.85 1850.06 528.8 1851.46 529.5C1852.96 530.1 1854.91 530.4 1857.31 530.4C1858.51 530.4 1860.06 530.3 1861.96 530.1C1863.96 529.8 1865.46 529.2 1866.46 528.3V547.05C1863.96 547.95 1861.36 548.55 1858.66 548.85C1855.96 549.15 1853.31 549.3 1850.71 549.3C1846.91 549.3 1843.41 548.9 1840.21 548.1C1837.01 547.3 1834.21 546.05 1831.81 544.35C1829.41 542.55 1827.51 540.25 1826.11 537.45C1824.81 534.65 1824.16 531.25 1824.16 527.25V492.6H1809.76V474.6H1824.16V453H1846.66V474.6H1866.46V492.6Z" fill="white"/>
<path d="M650.183 512.4H627.683V441.3H650.183V512.4ZM625.133 534.6C625.133 532.7 625.483 530.9 626.183 529.2C626.883 527.5 627.833 526.05 629.033 524.85C630.333 523.55 631.833 522.55 633.533 521.85C635.233 521.15 637.033 520.8 638.933 520.8C640.833 520.8 642.633 521.15 644.333 521.85C646.033 522.55 647.483 523.55 648.683 524.85C649.983 526.05 650.983 527.5 651.683 529.2C652.383 530.9 652.733 532.7 652.733 534.6C652.733 536.5 652.383 538.3 651.683 540C650.983 541.7 649.983 543.2 648.683 544.5C647.483 545.7 646.033 546.65 644.333 547.35C642.633 548.05 640.833 548.4 638.933 548.4C637.033 548.4 635.233 548.05 633.533 547.35C631.833 546.65 630.333 545.7 629.033 544.5C627.833 543.2 626.883 541.7 626.183 540C625.483 538.3 625.133 536.5 625.133 534.6Z" fill="#E5A894"/>
<defs>
<linearGradient id="paint0_linear_17_123" x1="1.49012e-05" y1="500" x2="2000" y2="500" gradientUnits="userSpaceOnUse">
<stop stop-color="#005396"/>
<stop offset="1" stop-color="#75CFC1"/>
</linearGradient>
</defs>
</svg>
